<svg xmlns="http://www.w3.org/2000/svg" aria-hidden="true" style="position:absolute;width:0;height:0;overflow:hidden"><defs><symbol id="icon-bird1" viewBox="0 0 32 32"><path d="M4.579 16.571a.121.121 0 0 0 .054.089c.03.026.07.039.115.027.062-.001.112-.059.119-.124.071-.1.156-.186.252-.255.887-.277 1.781-.377 2.702-.019.58.225 1.131.533 1.721.721.898.285 1.812.532 2.732.733.98.214 1.976.353 2.963.531.064.011.15.059.175.113.443.967.799 1.977.823 3.039.014.598.341 1.097.324 1.694-.011.402.154.809.243 1.214a.3.3 0 0 0 .053.118c.347.43.363.978.529 1.473.058.172.127.343.217.499.597 1.041 1.151 2.109 1.944 3.025.628.725 1.336 1.36 2.131 1.895.343.231.7.444 1.042.659.107-.085.244-.14.248-.254.486-.132.573-.782.263-1.101.191-.259.171-.664-.059-.893.4-.243.391-.918-.026-1.142.041-.309-.11-.649-.455-.733.131-.354-.025-.825-.467-.896l-.003-.011c.319-.296.261-.922-.173-1.099.048-.28-.065-.593-.339-.72l-.016-.07c.106-.259.053-.589-.158-.778.106-.253.06-.575-.138-.767a2.434 2.434 0 0 1 .011-.727c.056-.311-.069-.657-.122-.986-.191-1.167-.767-2.194-1.197-3.274-.028-.071-.053-.144-.094-.255.416-.061.814-.123 1.213-.176.936-.124 1.871-.258 2.809-.359.321-.035.652.002.977.029.254.021.512.069.727-.099.249-.196.536-.209.828-.244.083-.01.165-.024.247-.04h.46c.089 0 .13-.072.125-.141l.048-.004c.166-.014.168-.275 0-.261a8.725 8.725 0 0 1-.161.013.15.15 0 0 0 .008-.063l.189-.028c.07-.011.108-.098.091-.16a.123.123 0 0 0-.113-.092.116.116 0 0 0-.083-.029 6.284 6.284 0 0 1-1.982-.291l-.011-.002c-.521-.172-1.059-.256-1.582-.404-.606-.172-1.178-.467-1.759-.721-.202-.089-.389-.214-.577-.333-.093-.059-.173-.141-.259-.211-.032-.026-.068-.069-.102-.07-.444-.005-.723-.365-1.102-.509-.25-.095-.488-.222-.736-.324-.261-.108-.528-.202-.791-.304-.371-.144-.542-.476-.714-.793-.343-.632-.65-1.285-1.004-1.91a4.345 4.345 0 0 0-.666-.903c-.361-.368-.789-.669-1.161-1.027-.41-.394-.838-.784-1.167-1.242-.319-.443-.502-.982-.782-1.456-.259-.438-.571-.846-.856-1.269a2.153 2.153 0 0 1-.071-.113.662.662 0 0 0-.156-.339c-.104-.239-.227-.463-.471-.612a.164.164 0 0 1-.042-.037.654.654 0 0 0-.26-.531l-.01-.02c.044-.279-.07-.587-.343-.712a.655.655 0 0 0-.182-.545l-.157-.157a.647.647 0 0 0-.328-.175c.086-.308-.034-.682-.359-.807C9.818.454 9.615 0 9.118 0c-.392 0-.601.284-.628.586a7.301 7.301 0 0 0-.291.675c-.44 1.202-.445 2.412-.143 3.658.151.622.33 1.197.756 1.679a.202.202 0 0 1 .047.092c.084.43.372.707.693.972.16.132.27.325.406.488.103.123.191.272.319.359.746.507 1.27 1.203 1.605 2.018.209.509.128 1.078.022 1.614a.516.516 0 0 1-.292.324c-.603.201-1.212.387-1.829.54-.928.231-1.889.352-2.684.959-.283.216-.514.449-.558.824-.008.067-.073.134-.125.189-.389.416-.846.681-1.434.719-.43.028-.636.404-.476.73.017.052.044.1.079.143z"/></symbol><symbol id="icon-bird2" viewBox="0 0 32 32"><path d="M7.925 11.449c-.099 1.468 1.572 2.779-.633 2.63S.327 11.827.387 10.941s3.296-2.451 5.5-2.302c2.204.148 2.137 1.34 2.037 2.81zm17.887 14.266a.862.862 0 0 0-.506.086l.005-.002c-2.067.206-2.867-1.676-2.867-1.676-.39-.299-.872-1.786-1.412-1.08l.166 1.246c.166 1.246 2.284 2.866 2.284 2.866l-1.08 1.412a.889.889 0 0 0 1.411 1.082l.002-.002.598-.782-.035.221a.889.889 0 0 0 1.756.284l.001-.005.418-2.634a.892.892 0 0 0-.735-1.017l-.005-.001zm-5.581.553a.861.861 0 0 0-.515.018l.006-.002c-2.076-.073-2.617-2.044-2.617-2.044-.347-.348-.625-1.887-1.255-1.26l-.003 1.257c-.003 1.257 1.88 3.146 1.88 3.146l-1.26 1.255a.889.889 0 1 0 1.254 1.26l.698-.695-.065.215a.889.889 0 0 0 1.701.518l.002-.006.766-2.554a.886.886 0 0 0-.587-1.106l-.006-.002zM31.119 5.981c-.34-.151-.674-.051-.933.217-.048.05-3.756 5.605-12.917 4.395-.302-.04 2.79 10.638 2.844 10.633.11-.012 2.729-.327 5.458-2.269 2.505-1.782 5.586-5.325 6.042-12.087.025-.372-.152-.736-.492-.888z"/><path d="M30.646 18.763c-.181-.299-.524-.498-.87-.419-1.149.262-2.842.483-4.027.403-5.651-.38-8.321-3.67-8.348-3.698-.244-.251.414 10.268.725 10.29 8.172.551 12.322-5.357 12.495-5.609a.894.894 0 0 0 .025-.967z"/><path d="M21.854 16.903c-.33 4.898 1.17 8.765-3.728 8.435s-9.018-4.373-8.688-9.272 12.747-4.06 12.416.837z"/><path d="M20.673 11.033c-.314 4.653-3.486 8.228-8.139 7.915s-8.172-4.34-7.858-8.993 4.295-7.506 8.948-7.192c3.556.239 7.324 4.163 7.048 8.27z"/><path d="M11.262 7.99a1.778 1.778 0 1 1-3.556 0 1.778 1.778 0 0 1 3.556 0zM16.159 14.796s6.782 5.02 11.011-3.964c.352-.748 1.498.705.088 3.7s-7.267 5.724-10.702 1.365c-.724-.92-.396-1.101-.396-1.101zM13.624 2.762s5.552.226 6.932-.424.121 2.606-2.9 3.368-4.032-2.944-4.032-2.944z"/><path d="M15.492 5.145s4.001.121 5.381-.528.121 2.606-2.9 3.368-2.482-2.84-2.482-2.84z"/></symbol><symbol id="icon-bird3" viewBox="0 0 32 32"><path d="M4.835 2.593a2.092 2.092 0 0 0 1.677 1.184A2.094 2.094 0 0 0 4.975.545a2.094 2.094 0 0 0-.14 2.048z"/><path d="M8.377 4.634a2.094 2.094 0 0 1-1.866-.857 2.094 2.094 0 0 1 3.568-.291 2.093 2.093 0 0 1-1.702 1.148zM3.03 6.485a2.093 2.093 0 0 0 1.967.588A2.093 2.093 0 0 0 2.51 4.499a2.093 2.093 0 0 0 .52 1.986zM6.944 7.726a2.091 2.091 0 0 1-1.946-.653 2.093 2.093 0 0 1 3.516-.67 2.093 2.093 0 0 1-1.57 1.323zM7.391 9.925s-2.492-.158-3.257 1.23c0 0-.095 2.044 1.34 2.72l1.917-3.95z"/><path d="M4.132 11.179c-.005.231-.002 2.063 1.341 2.696l.515-1.062c-.925-.241-1.514-.999-1.856-1.634z"/><path d="M29.483 22.072c.026.02.048.043.062.072.078.156-.236.799-.296.965a12.58 12.58 0 0 1-1.864 3.418 12.652 12.652 0 0 1-6.302 4.38 12.603 12.603 0 0 1-3.685.548c-6.947 0-12.579-5.632-12.579-12.579 0-5.168 1.99-12.055 8.23-11.634a5.409 5.409 0 0 1 3.966 2.177c1.165 1.572 1.337 3.625 1.937 5.453.981 2.989 3.83 5.323 6.732 6.338.621.217 1.285.351 1.927.494.463.103.937.157 1.402.249.138.027.352.032.469.119z"/><path d="M28.397 24.129a13.217 13.217 0 0 1-6.584 4.576 13.182 13.182 0 0 1-3.85.573c-6.848 0-12.471-5.237-13.086-11.924a20.86 20.86 0 0 0-.057 1.522c0 6.947 5.632 12.579 12.579 12.579 1.247 0 2.492-.183 3.685-.548a12.607 12.607 0 0 0 8.166-7.798c.042-.117.211-.472.279-.726-.33.61-.709 1.195-1.132 1.746z"/><path d="m24.897 12.453-4.459 2.563a4.907 4.907 0 0 0 4.336 8.783l2.484-1.425c.586-.336.926-1 .81-1.665a1.637 1.637 0 0 0-2.107-1.277l-.019-.032.769-.442a1.637 1.637 0 0 0-1.631-2.837l1.447-.832a1.637 1.637 0 0 0 .603-2.234 1.635 1.635 0 0 0-2.234-.603zM10.419 13.972c.586 0 1.151-.286 1.491-.781a.544.544 0 1 0-.897-.617c-.168.244-.473.36-.761.289s-.504-.316-.539-.61a.545.545 0 0 0-1.081.129 1.813 1.813 0 0 0 1.787 1.589z"/><path d="M7.789 27.811a.553.553 0 0 0 .769.028.544.544 0 0 0 .028-.769 11.993 11.993 0 0 1-3.221-8.193c0-1.202.111-2.989.615-4.864l.001-.004c.897-3.293 3.236-6.479 7.032-6.222a4.85 4.85 0 0 1 3.071 1.39.545.545 0 0 0 .764-.776A5.936 5.936 0 0 0 13.087 6.7c-2.08-.141-3.862.467-5.294 1.806-.29.272-.557.564-.801.872-.534.013-1.389.097-2.137.448.092-.507.23-1.134.437-1.839a2.637 2.637 0 0 0 3.731-1.392.543.543 0 0 0-.106-.557 2.642 2.642 0 0 0-2.575-.795c.092-.192.189-.386.291-.581a2.637 2.637 0 0 0 1.79.514 2.62 2.62 0 0 0 2.144-1.446.544.544 0 0 0-.046-.565 2.648 2.648 0 0 0-2.22-1.086c.124-.158.252-.316.385-.473a.545.545 0 0 0-.83-.704c-.221.261-.43.523-.629.787A2.621 2.621 0 0 0 5.033.003a.546.546 0 0 0-.512.243 2.62 2.62 0 0 0-.176 2.58 2.625 2.625 0 0 0 1.338 1.291c-.178.336-.342.669-.491.996a2.663 2.663 0 0 0-2.799-1.145.547.547 0 0 0-.408.394c-.234.899.01 1.834.655 2.502.433.448.994.722 1.604.789-.575 1.955-.648 3.352-.654 3.478-.004.089-.075 2.032 1.243 2.993a21.182 21.182 0 0 0-.556 4.753 13.08 13.08 0 0 0 3.512 8.935zm.47-24.64c.416-.034.827.104 1.138.371a1.535 1.535 0 0 1-1.063.549 1.557 1.557 0 0 1-1.138-.371 1.543 1.543 0 0 1 1.063-.549zm-2.932-.812a1.541 1.541 0 0 1-.058-1.196c.389.134.709.417.891.799s.199.81.058 1.196a1.54 1.54 0 0 1-.891-.799zM6.67 6.285c.41-.078.835.015 1.171.247-.228.342-.583.58-.998.66a1.558 1.558 0 0 1-1.171-.247c.228-.342.582-.58.998-.66zm-3.247-.178a1.539 1.539 0 0 1-.436-1.114c.418.004.808.172 1.099.473.294.304.447.704.436 1.114a1.538 1.538 0 0 1-1.099-.473zm1.256 5.204c.296-.414.889-.652 1.525-.765a12.204 12.204 0 0 0-.927 2.057l-.004.012c-.032.093-.064.185-.094.278l-.014.042c-.413-.547-.478-1.32-.486-1.624zM9.476 29.337A13.009 13.009 0 0 0 17.401 32c1.31 0 2.603-.192 3.844-.572a13.24 13.24 0 0 0 6.574-4.569 13.094 13.094 0 0 0 1.944-3.567l.057-.138c.234-.548.375-.932.212-1.255-.119-.236-.348-.353-.594-.416a16.66 16.66 0 0 0-.835-.155c.041-.233.044-.473.002-.712a2.177 2.177 0 0 0-1.144-1.556c.256-.263.442-.587.54-.951a2.162 2.162 0 0 0-.215-1.655c-.2-.348-.482-.62-.809-.806a2.185 2.185 0 0 0 .626-2.863c-.29-.505-.76-.867-1.322-1.018s-1.15-.076-1.655.215l-4.459 2.563c-.215.123-.418.26-.609.407a6.687 6.687 0 0 1-.087-.248 22.984 22.984 0 0 1-.456-1.666c-.217-.875-.442-1.78-.811-2.626a.544.544 0 1 0-.998.436c.332.762.536 1.583.752 2.452.143.575.29 1.17.479 1.743.078.238.17.479.275.719a5.439 5.439 0 0 0-.86 5.609.551.551 0 0 0 .712.292.55.55 0 0 0 .293-.713 4.367 4.367 0 0 1 .763-4.575l.007-.008c.304-.342.667-.64 1.082-.879l4.459-2.563c.253-.145.547-.183.829-.107s.517.257.662.51c.3.522.119 1.19-.402 1.49l-1.447.832a.544.544 0 1 0 .542.944 1.093 1.093 0 0 1 1.597 1.231 1.082 1.082 0 0 1-.51.662l-.769.442a.544.544 0 0 0-.201.743l.019.032a.544.544 0 0 0 .637.247 1.097 1.097 0 0 1 1.277.497c.181.315.189.709.007 1.032l-.004.006a1.167 1.167 0 0 1-.414.415l-.003.002-2.454 1.407a4.385 4.385 0 0 1-4.537-.766.554.554 0 0 0-.768.048c-.296.336-.042.704.241.93a5.484 5.484 0 0 0 5.516.779.69.69 0 0 0 .061-.03l2.484-1.425a2.25 2.25 0 0 0 .573-.473l.019-.021c.262.043.527.079.787.134l.008.002c-.058.146-.12.291-.18.437a11.997 11.997 0 0 1-1.783 3.27 12.14 12.14 0 0 1-6.029 4.191 12.043 12.043 0 0 1-3.525.524c-2.649 0-5.162-.844-7.267-2.442a.544.544 0 1 0-.658.867z"/></symbol></defs></svg>