<svg xmlns="http://www.w3.org/2000/svg" aria-hidden="true" style="position:absolute;width:0;height:0;overflow:hidden"><defs><symbol id="icon-down-arrow" viewBox="0 0 32 32"><path d="M24.404 19.082h-5.58V2.824C18.824 1.267 17.557 0 16 0s-2.824 1.267-2.824 2.824v16.258h-5.58A2.26 2.26 0 0 0 6 22.935l8.404 8.404c.426.426.993.661 1.596.661s1.169-.235 1.596-.661L26 22.935a2.26 2.26 0 0 0-1.596-3.853zm.695 2.951-8.404 8.404a.978.978 0 0 1-1.388 0l-8.404-8.404a.984.984 0 0 1 .694-1.676h6.217a.637.637 0 0 0 .637-.637V2.825c0-.854.695-1.549 1.549-1.549s1.549.695 1.549 1.549V19.72c0 .352.285.637.637.637h6.217a.984.984 0 0 1 .694 1.676z"/><path d="M21.869 23.758a.638.638 0 0 0-.902 0l-.142.142a.638.638 0 0 0 .902.902l.142-.142a.638.638 0 0 0 0-.902zM20.283 25.334a.638.638 0 0 0-.902 0l-3.729 3.729a.637.637 0 1 0 .902.901l3.729-3.729a.638.638 0 0 0 0-.902z"/></symbol><symbol id="icon-down-arrow2" viewBox="0 0 32 32"><path d="M21.333 10.668v13.386l-5.066 7.306c-.16.16-.373.16-.48 0l-5.12-7.306V2.135l5.066 5.866c.16.16.373.16.48 0l5.12-5.866v8.533z"/><path d="M21.333 2.349v21.705l-5.066 7.306c-.107.053-.16.107-.267.107.107 0 .213-.053.32-.107l6.613-7.306V.536l-1.6 1.813zM10.667 24.054V2.349L9.067.536v23.518l6.613 7.306c.107.053.213.107.32.107-.107 0-.16-.053-.267-.107l-5.066-7.306z"/><path d="M16 32c-.213 0-.48-.053-.64-.213l-.053-.053-6.613-7.306a.576.576 0 0 1-.16-.373V.537c0-.213.16-.427.32-.48.213-.107.48-.053.587.107l6.56 7.413L22.56.164c.107-.16.373-.213.587-.107.16.053.32.267.32.48v5.866c0 .32-.213.533-.533.533s-.533-.213-.533-.533v-4.48l-5.653 6.4-.053.053a.973.973 0 0 1-1.28 0c-.053 0-.053-.053-.053-.053l-5.76-6.4v21.919l6.4 7.093 6.4-7.093V10.67c0-.32.213-.533.533-.533s.533.213.533.533v13.386a.572.572 0 0 1-.16.373l-6.613 7.36c-.213.16-.48.213-.693.213z"/><path d="M22.933 9.068c.32 0 .533-.213.533-.533s-.213-.533-.533-.533c-.32 0-.533.213-.533.533s.213.533.533.533z"/></symbol><symbol id="icon-sun" viewBox="0 0 32 32"><path d="M19.674 7.132a.532.532 0 0 0 .697-.289l.816-1.972a.534.534 0 0 0-.986-.408l-.816 1.971a.534.534 0 0 0 .289.697zM16 7.467c-4.705 0-8.533 3.828-8.533 8.533s3.828 8.533 8.533 8.533c4.706 0 8.533-3.828 8.533-8.533S20.705 7.467 16 7.467zm0 16c-4.117 0-7.467-3.349-7.467-7.467S11.883 8.533 16 8.533c4.117 0 7.467 3.349 7.467 7.467S20.118 23.467 16 23.467zM21.308 3.19a.532.532 0 0 0 .696-.29l.889-2.163a.533.533 0 1 0-.987-.405l-.889 2.163a.534.534 0 0 0 .291.696zM9.997 2.9a.535.535 0 0 0 .987-.406l-.89-2.163a.533.533 0 1 0-.987.405l.89 2.163zM16 6.4a.533.533 0 0 0 .533-.533V2.134a.533.533 0 1 0-1.066 0v3.733c0 .294.239.533.533.533zM10.813 4.872l.817 1.971a.534.534 0 0 0 .986-.409l-.817-1.971a.535.535 0 0 0-.986.408zM26.133 15.467a.533.533 0 0 0 0 1.066H30.4a.533.533 0 1 0 0-1.066h-4.267zM8.646 9.29a.53.53 0 0 0 .754 0 .532.532 0 0 0 0-.754L6.383 5.519a.534.534 0 0 0-.754.754L8.646 9.29zM29.304 11.023a.54.54 0 0 0 .203-.04l2.163-.89a.534.534 0 0 0-.406-.987l-2.163.89a.534.534 0 0 0 .203 1.027zM24.869 12.327a.533.533 0 0 0 .697.289l1.971-.817a.534.534 0 0 0-.408-.986l-1.971.817a.535.535 0 0 0-.289.697zM22.977 9.29a.53.53 0 0 0 .754 0l2.64-2.639a.534.534 0 0 0-.754-.754l-2.64 2.639a.534.534 0 0 0 0 .754z"/><path d="M19.483 10.63a.533.533 0 1 0-.581.894 5.358 5.358 0 0 1 1.854 2.059.533.533 0 0 0 .951-.484 6.43 6.43 0 0 0-2.223-2.469zM22.002 29.098a.535.535 0 0 0-.985.412l.89 2.129a.536.536 0 0 0 .698.286.534.534 0 0 0 .286-.698l-.89-2.13zM23.731 22.866a.534.534 0 0 0-.754.755l3.017 3.016a.532.532 0 1 0 .754-.754l-3.017-3.017zM21.187 27.129l-.817-1.972a.533.533 0 1 0-.986.409l.817 1.972a.535.535 0 0 0 .697.289.535.535 0 0 0 .289-.697zM12.327 24.869a.532.532 0 0 0-.697.289l-.817 1.972a.533.533 0 1 0 .986.408l.818-1.972a.535.535 0 0 0-.289-.697zM16 25.6a.533.533 0 0 0-.533.533V30.4a.533.533 0 0 0 1.066 0v-4.267A.533.533 0 0 0 16 25.6zM27.537 20.202l-1.971-.817a.533.533 0 1 0-.408.986l1.972.817a.534.534 0 0 0 .408-.986zM31.669 21.907l-2.163-.889a.532.532 0 1 0-.405.986l2.163.889a.536.536 0 0 0 .696-.291.533.533 0 0 0-.291-.696zM10.692 28.81a.534.534 0 0 0-.696.29l-.889 2.164a.534.534 0 0 0 .987.405l.889-2.163a.533.533 0 0 0-.291-.696zM.331 10.094l2.164.889a.535.535 0 0 0 .405-.987L.736 9.107a.533.533 0 1 0-.405.987zM1.6 15.467a.533.533 0 0 0 0 1.066h4.267a.533.533 0 1 0 0-1.066H1.6zM4.463 11.799l1.972.817a.532.532 0 1 0 .408-.986l-1.971-.817a.533.533 0 0 0-.409.986zM2.494 21.017l-2.163.89a.534.534 0 0 0 .406.987l2.163-.89a.533.533 0 1 0-.405-.986zM7.132 19.674a.533.533 0 0 0-.697-.289l-1.972.817a.533.533 0 1 0 .408.986l1.972-.817a.534.534 0 0 0 .289-.697zM9.4 22.866a.534.534 0 0 0-.754 0l-3.017 3.017a.532.532 0 0 0 .377.91.532.532 0 0 0 .377-.156L9.4 23.621a.533.533 0 0 0 0-.755z"/></symbol><symbol id="icon-Vector11" viewBox="0 0 32 32"><path d="M32 3.223 28.777 0 16 12.777 3.223 0 0 3.223 12.777 16 0 28.777 3.223 32 16 19.223 28.777 32 32 28.777 19.223 16 32 3.223z"/></symbol></defs></svg>