<svg xmlns="http://www.w3.org/2000/svg" aria-hidden="true" style="position:absolute;width:0;height:0;overflow:hidden"><defs><symbol id="icon-bird" viewBox="0 0 32 32"><path d="M31.136 22.783c.506-.33.558-.633.154-1.044a1.88 1.88 0 0 0-.516-.369c-.243-.115-.509-.181-.772-.271.565-.254.621-.311.781-.783l-.24-.384c-.831-.424-1.656-.298-2.472.04-.684.283-1.354.6-2.044.868-.859.333-1.734.428-2.617.412a1.625 1.625 0 0 0-.122-.015c-1.15-.097-2.448-.357-3.639-.716.166-.208.326-.417.464-.64.287-.461.197-.616-.355-.803.306-.332.612-.64.889-.971.248-.296.486-.606.689-.934.147-.238.225-.53.014-.777-.227-.266-.539-.225-.84-.147-.078.02-.149.062-.269.113.197-.567.406-1.077.547-1.605.105-.395.18-.815.167-1.221-.028-.924-.44-1.151-1.252-.74.059-.657.148-1.313.167-1.97a6.796 6.796 0 0 0-.11-1.459c-.147-.778-.386-.849-.961-.348-.052-.467-.089-.935-.161-1.397-.032-.207-.119-.41-.203-.605-.244-.566-.506-.609-.95-.192-.155-.481-.313-.974-.473-1.466-.015-.047-.04-.092-.064-.136-.262-.483-.429-.502-.775-.083-.351-.607-.47-1.375-1.195-1.718l-.32.2c-.258.725-.149 1.457-.023 2.183.031.177.057.353.078.528a.933.933 0 0 0 .04.503l.011.032c.048.678.027 1.346-.049 2.004l-.084.365a.172.172 0 0 0 .018.131c-.214 1.36-.659 2.682-1.231 3.985-.136.31-.252.63-.383.943-.61 1.455-.117 2.748.575 4.02.234.43.448.872.633 1.325.06.148.109.29.144.426l-1.184-1.737a5.351 5.351 0 0 0-.832-1.151c-.128-.133-.33-.193-.498-.287l-.241.481c-.222-.255-.457-.556-.725-.823a4.698 4.698 0 0 0-.754-.618c-.535-.344-.775-.233-.916.317-.457-.386-.932-.799-1.422-1.194-.123-.099-.288-.152-.442-.204-.391-.133-.525-.077-.711.248-.397-.224-.777-.486-1.193-.66-.618-.259-.908-.102-1.105.529-.703-.497-1.475-.819-2.329-.879-.432-.03-.875.014-1.306.076-.198.029-.399.158-.558.29-.099.081-.19.268-.164.379.026.108.194.206.32.261.135.059.292.072.442.088 1.795.195 3.199 1.155 4.429 2.372.754.746 1.396 1.609 2.062 2.441.385.481.864.796 1.435.989.901.305 1.847.503 2.609 1.133a.099.099 0 0 0 .059.019.829.829 0 0 0 .168.172l.046.034a10.873 10.873 0 0 0-2.568.551c-1.614.579-2.203 2.44-1.259 3.868.182.276.326.578.514.916.298.437.149.943.285.829s.272-.585.357-.717c.097-.301.246-.485.632-.528a1.688 1.688 0 0 0 1.272-.852l.433-.125a.15.15 0 0 0 .055.011c1.296-.018 2.476.498 3.708.78 1 .229 2.01.471 3.028.548 2.008.154 3.476-.779 4.329-2.612.042-.09.081-.182.119-.274.162-.007.323-.009.485-.004.113.003.227.008.34.015.039.02.078.039.119.046.151.028.297.062.439.1.083.046.172.083.266.11.252.07.516.172.772.297.953.509 1.664 1.322 2.169 2.399.114.244.29.477.489.659.438.401.897.242 1.038-.336a.733.733 0 0 0 .011-.05c.018-.01.036-.018.052-.029.078-.049.144-.103.203-.162l.664.348.448-.28c.228-.443.375-.899.248-1.41.065-.013.128-.033.19-.057.293.079.569.119.79-.146.285-.341.189-.735.052-1.107-.057-.156-.144-.303-.229-.459.051-.034.099-.071.144-.112.297.025.586.016.763-.289.149-.256.044-.701-.242-1-.169-.176-.368-.324-.554-.485z"/></symbol><symbol id="icon-girl" viewBox="0 0 32 32"><path d="m27.837 4.597-2.516-3.429A2.866 2.866 0 0 0 21.32.554l-3.077 2.258c-.699-.258-1.455-.398-2.243-.398s-1.543.141-2.243.398L10.68.554a2.865 2.865 0 0 0-4.001.614L4.163 4.597a2.002 2.002 0 0 0 1.609 3.182c.615 0 1.223-.283 1.614-.816l1.993-2.717 1.29.947a6.472 6.472 0 0 0-1.176 3.725 6.516 6.516 0 0 0 4.133 6.057h-2.069a3.497 3.497 0 0 0-3.493 3.168L7.057 28.434c-.089.911.212 1.822.827 2.5s1.492 1.067 2.407 1.067h11.414c.915 0 1.792-.389 2.407-1.067s.916-1.589.827-2.5l-1.007-10.291a3.497 3.497 0 0 0-3.493-3.168H18.37a6.516 6.516 0 0 0 4.133-6.057 6.462 6.462 0 0 0-1.176-3.725l1.29-.947 1.993 2.717a1.998 1.998 0 1 0 3.223-2.366zM8.883 30.029a1.884 1.884 0 0 1-.485-1.464l.872-8.913c.283 2.994.685 7.779.707 10.977a1.886 1.886 0 0 1-1.095-.599zM22.73 19.651l.872 8.913a1.882 1.882 0 0 1-.485 1.465c-.293.324-.674.53-1.095.599.022-3.198.424-7.983.707-10.977zM20.192 3.05l.624.85-.371.272a6.632 6.632 0 0 0-.858-.679l.605-.444zM16 3.759a5.163 5.163 0 0 1 4.52 2.675h-9.04A5.163 5.163 0 0 1 16 3.759zm-4.192-.709.605.444a6.465 6.465 0 0 0-.858.679l-.371-.272.624-.85zm-1.708.054-.466-.342a.672.672 0 0 0-.94.144L6.302 6.165a.654.654 0 0 1-1.054-.774l2.516-3.429a1.508 1.508 0 0 1 1.226-.62c.32 0 .631.101.894.294l.839.616-.624.85zm9.43 13.217h.911c.458 0 .883.141 1.234.383a.842.842 0 0 0-.008.053c-.01.09-.959 8.9-.99 13.897h-9.353c-.031-4.997-.98-13.808-.99-13.897a.45.45 0 0 0-.009-.053c.35-.242.776-.383 1.234-.383h.73l3.068 4.434a.672.672 0 0 0 1.106 0l3.068-4.434zm-5.605 0h3.969l-1.985 2.869-1.985-2.869zM16 14.077a5.164 5.164 0 0 1-5.031-6.298h10.009a.44.44 0 0 0 .052-.003A5.164 5.164 0 0 1 16 14.077zm10.612-7.77a.655.655 0 0 1-.914-.14l-2.392-3.259a.673.673 0 0 0-.94-.145l-.466.342-.624-.85.839-.616c.327-.24.727-.338 1.128-.276s.753.275.993.602l2.516 3.429c.213.29.15.7-.14.913z"/><path d="M14.925 9.367a.673.673 0 0 0-.673-.673h-1.018a.673.673 0 1 0 0 1.346h1.018a.673.673 0 0 0 .673-.673zM18.766 8.694h-1.018a.673.673 0 1 0 0 1.346h1.018a.673.673 0 1 0 0-1.346zM16.926 11.558h-1.853a.673.673 0 1 0 0 1.346h1.853a.673.673 0 1 0 0-1.346zM12.106 23.178c0 .372.301.673.673.673h6.261a.673.673 0 1 0 0-1.346h-6.261a.673.673 0 0 0-.673.673z"/></symbol><symbol id="icon-rabbit" viewBox="0 0 32 32"><path d="M11.804 32a.523.523 0 0 0 .519-.583l-.333-2.894c.4-.528.702-1.156.762-1.883 0 0 2.66-.519 3.559-.583.581-.042 1.155.272 1.538.701.317.356.464.791.414 1.227-.136 1.183-.472 3.391-.475 3.413a.525.525 0 0 0 .517.602h4.012a.522.522 0 0 0 .479-.314c.024-.055 2.17-4.974 4.145-10.369a3.363 3.363 0 0 0 2.928-3.33c0-.744-.244-1.459-.694-2.044.235-.822.359-1.633.359-2.363 0-.788-.189-1.431-.574-1.943l2.271-8.21c.348-1.258.451-2.885-.402-3.331-.208-.109-.762-.279-1.402.489l-1.248 1.501c-.827.994-1.588 2.599-2.087 4.404l-.999 3.612a19.55 19.55 0 0 0-1.537-.055c-.371 0-.749.007-1.126.027l-.991-3.585c-.499-1.804-1.26-3.409-2.087-4.404L18.104.584c-.64-.769-1.193-.598-1.402-.489-.853.446-.75 2.073-.402 3.331l2.178 7.874c-.558.522-.901 1.254-.901 2.279 0 .331.024.677.07 1.031-1.866.191-6.537.811-10.801 2.537l-.045.019a1.912 1.912 0 0 1-.19-.253 2.688 2.688 0 0 1-.166-.395c-.134-.369-.302-.829-.739-1.081-.426-.246-.903-.165-1.286-.1-.163.028-.318.054-.446.054s-.283-.026-.446-.054c-.383-.065-.86-.147-1.286.1-.437.253-.604.712-.739 1.081-.055.15-.107.293-.166.395a2.551 2.551 0 0 1-.249.322c-.257.302-.577.678-.577 1.2s.32.898.577 1.2c.1.117.194.228.249.322.059.102.111.244.166.395.134.369.302.828.739 1.081.219.127.452.167.678.167.195 0 .384-.03.557-.059-.421 4.4 3.512 9.983 3.694 10.237.098.138.257.22.426.22h4.205zm16.105-19.969-.772.427c-.928.514-1.674 1.576-2.101 2.991l-.808 2.682c-.163-.047-.351-.074-.554-.074s-.391.027-.554.074l-.808-2.682c-.426-1.415-1.172-2.478-2.101-2.991l-.898-.497c.636-.504 1.825-.844 4.012-.866v.863a.349.349 0 1 0 .698 0v-.859c2.19.046 3.314.418 3.886.932zm-9.382 5.956c0-.501.158-.978.456-1.379a.525.525 0 0 0 .078-.474c-.287-.885-.438-1.768-.438-2.555 0-.377.051-.745.23-1.078l1.021.565c.757.419 1.402 1.36 1.77 2.582l.886 2.94a.394.394 0 0 0-.019.118c0 .289.357.948.849 1.163v.789a3.213 3.213 0 0 1-1.384-.431.518.518 0 0 0-.421-.043 2.314 2.314 0 0 1-3.028-2.198zm-1.22-14.839c-.297-1.073-.231-1.767-.144-2.036.036.032.081.078.135.142l1.248 1.501c.725.871 1.429 2.372 1.883 4.013l.94 3.4c-.715.095-1.394.257-1.975.527l-2.088-7.548zM2.767 20.529c-.108-.062-.199-.313-.279-.534-.068-.186-.138-.379-.243-.561-.102-.177-.232-.329-.358-.477-.161-.189-.328-.385-.328-.522s.167-.333.328-.522c.126-.147.256-.3.358-.477.105-.182.175-.374.243-.561.08-.221.172-.471.28-.534a.32.32 0 0 1 .151-.027c.125 0 .292.028.435.053.199.034.405.069.622.069s.423-.035.622-.069c.217-.037.487-.083.586-.026.108.062.199.313.279.534.068.186.138.379.243.561.043.075.092.145.143.212-1.087.672-1.814 1.611-2.164 2.802-.113.013-.224.032-.332.05-.217.037-.487.083-.586.026zm7.13 10.425-.147-.61a7.92 7.92 0 0 0 1.297-.858l.169 1.467H9.897zm2.254-5.276a.524.524 0 0 0-.438.549c.129 2.072-2.747 3.338-2.775 3.351a.524.524 0 0 0-.303.603l.186.773h-.947c-.775-1.155-4.236-6.601-3.188-10.2.357-1.224 1.191-2.086 2.551-2.637 4.158-1.683 8.85-2.293 10.6-2.472.045.188.094.376.151.565a3.33 3.33 0 0 0-.508 1.777c0 .947.394 1.802 1.026 2.413a4.954 4.954 0 0 0 .674 4.138c1.208 1.825 1.637 2.92 1.788 3.439l-1.251 2.976h-.804c.111-.748.295-2.024.39-2.849.085-.736-.154-1.461-.673-2.043-.587-.659-1.472-1.123-2.359-1.052-1.041.084-4.121.668-4.121.668zm9.792 2.682c.399-.316 1.092-.91 1.841-1.76a207.76 207.76 0 0 1-1.81 4.354h-1.121l1.09-2.594zm-.302-.68c-.2-.635-.717-1.771-1.879-3.525-.84-1.268-.819-2.485-.652-3.288a3.334 3.334 0 0 0 2.547.379c.61.311 1.247.468 1.898.468.656 0 1.305-.177 1.935-.526.116.037.233.067.352.091-.334.907-.608 1.826-1.003 2.652-.931 1.946-2.488 3.159-3.197 3.749zm4.869-7.38c-.302 0-.597-.058-.876-.172a.521.521 0 0 0-.476.041 3.218 3.218 0 0 1-1.17.461v-.758c.492-.214.849-.874.849-1.163a.389.389 0 0 0-.019-.118l.886-2.94c.368-1.222 1.013-2.163 1.77-2.582l.847-.469c.136.314.165.651.165.981 0 .706-.136 1.51-.394 2.326a.522.522 0 0 0 .115.513c.396.428.614.986.614 1.569a2.315 2.315 0 0 1-2.313 2.312zm3.712-17.152-2.137 7.725-.019-.012c-.5-.291-1.131-.5-1.923-.633l.957-3.459c.454-1.642 1.158-3.142 1.883-4.013l1.248-1.501c.054-.065.099-.11.135-.142.087.269.153.963-.144 2.036z"/><path d="M21.152 17.093a.523.523 0 1 0-1.045 0 .523.523 0 0 0 1.045 0zM26.378 16.57c-.138 0-.273.056-.37.153a.527.527 0 0 0 0 .74.527.527 0 0 0 .74 0 .523.523 0 0 0-.37-.893z"/></symbol><symbol id="icon-sun" viewBox="0 0 32 32"><path d="M19.674 7.132a.532.532 0 0 0 .697-.289l.816-1.972a.534.534 0 0 0-.986-.408l-.816 1.971a.534.534 0 0 0 .289.697zM16 7.467c-4.705 0-8.533 3.828-8.533 8.533s3.828 8.533 8.533 8.533c4.706 0 8.533-3.828 8.533-8.533S20.705 7.467 16 7.467zm0 16c-4.117 0-7.467-3.349-7.467-7.467S11.883 8.533 16 8.533c4.117 0 7.467 3.349 7.467 7.467S20.118 23.467 16 23.467zM21.308 3.19a.532.532 0 0 0 .696-.29l.889-2.163a.533.533 0 1 0-.987-.405l-.889 2.163a.534.534 0 0 0 .291.696zM9.997 2.9a.535.535 0 0 0 .987-.406l-.89-2.163a.533.533 0 1 0-.987.405l.89 2.163zM16 6.4a.533.533 0 0 0 .533-.533V2.134a.533.533 0 1 0-1.066 0v3.733c0 .294.239.533.533.533zM10.813 4.872l.817 1.971a.534.534 0 0 0 .986-.409l-.817-1.971a.535.535 0 0 0-.986.408zM26.133 15.467a.533.533 0 0 0 0 1.066H30.4a.533.533 0 1 0 0-1.066h-4.267zM8.646 9.29a.53.53 0 0 0 .754 0 .532.532 0 0 0 0-.754L6.383 5.519a.534.534 0 0 0-.754.754L8.646 9.29zM29.304 11.023a.54.54 0 0 0 .203-.04l2.163-.89a.534.534 0 0 0-.406-.987l-2.163.89a.534.534 0 0 0 .203 1.027zM24.869 12.327a.533.533 0 0 0 .697.289l1.971-.817a.534.534 0 0 0-.408-.986l-1.971.817a.535.535 0 0 0-.289.697zM22.977 9.29a.53.53 0 0 0 .754 0l2.64-2.639a.534.534 0 0 0-.754-.754l-2.64 2.639a.534.534 0 0 0 0 .754z"/><path d="M19.483 10.63a.533.533 0 1 0-.581.894 5.358 5.358 0 0 1 1.854 2.059.533.533 0 0 0 .951-.484 6.43 6.43 0 0 0-2.223-2.469zM22.002 29.098a.535.535 0 0 0-.985.412l.89 2.129a.536.536 0 0 0 .698.286.534.534 0 0 0 .286-.698l-.89-2.13zM23.731 22.866a.534.534 0 0 0-.754.755l3.017 3.016a.532.532 0 1 0 .754-.754l-3.017-3.017zM21.187 27.129l-.817-1.972a.533.533 0 1 0-.986.409l.817 1.972a.535.535 0 0 0 .697.289.535.535 0 0 0 .289-.697zM12.327 24.869a.532.532 0 0 0-.697.289l-.817 1.972a.533.533 0 1 0 .986.408l.818-1.972a.535.535 0 0 0-.289-.697zM16 25.6a.533.533 0 0 0-.533.533V30.4a.533.533 0 0 0 1.066 0v-4.267A.533.533 0 0 0 16 25.6zM27.537 20.202l-1.971-.817a.533.533 0 1 0-.408.986l1.972.817a.534.534 0 0 0 .408-.986zM31.669 21.907l-2.163-.889a.532.532 0 1 0-.405.986l2.163.889a.536.536 0 0 0 .696-.291.533.533 0 0 0-.291-.696zM10.692 28.81a.534.534 0 0 0-.696.29l-.889 2.164a.534.534 0 0 0 .987.405l.889-2.163a.533.533 0 0 0-.291-.696zM.331 10.094l2.164.889a.535.535 0 0 0 .405-.987L.736 9.107a.533.533 0 1 0-.405.987zM1.6 15.467a.533.533 0 0 0 0 1.066h4.267a.533.533 0 1 0 0-1.066H1.6zM4.463 11.799l1.972.817a.532.532 0 1 0 .408-.986l-1.971-.817a.533.533 0 0 0-.409.986zM2.494 21.017l-2.163.89a.534.534 0 0 0 .406.987l2.163-.89a.533.533 0 1 0-.405-.986zM7.132 19.674a.533.533 0 0 0-.697-.289l-1.972.817a.533.533 0 1 0 .408.986l1.972-.817a.534.534 0 0 0 .289-.697zM9.4 22.866a.534.534 0 0 0-.754 0l-3.017 3.017a.532.532 0 0 0 .377.91.532.532 0 0 0 .377-.156L9.4 23.621a.533.533 0 0 0 0-.755z"/></symbol><symbol id="icon-tree" viewBox="0 0 32 32"><path d="M31.183 6.529a3.471 3.471 0 0 0-3.468-3.467h-.001a2.021 2.021 0 0 0-2.291-1.678 2.016 2.016 0 0 0-2.681-.845 2.745 2.745 0 0 0-3.828.559 3.454 3.454 0 0 0-2.059-.677 3.479 3.479 0 0 0-3.397 2.773 2.44 2.44 0 0 0-1.969.932 3.466 3.466 0 0 0-4.674.975A2.407 2.407 0 0 0 3.43 7.666a3.833 3.833 0 0 0-2.613 3.618 3.813 3.813 0 0 0 2.593 3.613 2.044 2.044 0 0 0 2.029 2.261c.587 0 1.128-.247 1.506-.663.38.209.809.32 1.253.32a2.6 2.6 0 0 0 1.303-.347 3.457 3.457 0 0 0 4.036.946c1.703 1.266 2.585 1.9 3.074 2.216a4.958 4.958 0 0 1-2.354 2.911 6.185 6.185 0 0 0-2.587 8.023l.123.261H8.134a.588.588 0 1 0 0 1.176h15.36a.588.588 0 1 0 0-1.176h-5.206a6.012 6.012 0 0 1 .261-7.386 7.203 7.203 0 0 0 1.673-4.837l2.573-1.869a3.047 3.047 0 0 0 2.596-1.863l.109.002a3.031 3.031 0 0 0 3.027-2.979 2.417 2.417 0 0 0 1.742-2.332c0-.207-.026-.409-.076-.606.633-.645.99-1.508.99-2.424zM14.575 16.717c.279-.271.514-.589.69-.945a2.08 2.08 0 0 0 .566-.241c.186.148.394.259.615.333l.271 1.26c.088.408.124.819.11 1.227-.569-.4-1.408-1.009-2.252-1.633zm3.073 5.966a7.192 7.192 0 0 0-.756 8.141h-3.797l-.359-.763a5.005 5.005 0 0 1 2.094-6.493c1.166-.647 2.073-1.631 2.624-2.845s.694-2.545.413-3.848l-.214-.993a2.032 2.032 0 0 0 .498-.225 6 6 0 0 1 .901 3.164c0 1.41-.498 2.782-1.403 3.862zm1.665-7.37c.221-.005.441-.036.656-.094a3.02 3.02 0 0 0 1.261 1.196l-1.172.852a7.177 7.177 0 0 0-.745-1.954zm9.829-6.992a.588.588 0 0 0-.166.709 1.247 1.247 0 0 1-1.095 1.782.588.588 0 0 0-.56.693 1.853 1.853 0 0 1-2.216 2.146c-.153-.033-.312-.004-.444.08s-.224.218-.256.371a1.858 1.858 0 0 1-1.809 1.46 1.845 1.845 0 0 1-1.581-.888c.45-.378.768-.891.905-1.462a3.46 3.46 0 0 0 2.159-.194.588.588 0 0 0-.466-1.08 2.286 2.286 0 0 1-1.946-.061.589.589 0 0 0-.852.571 1.567 1.567 0 0 1-2.196 1.557.587.587 0 0 0-.772.293.836.836 0 0 1-1.47.101.59.59 0 0 0-.955-.053.842.842 0 0 1-1.483-.386.588.588 0 0 0-.921-.379 2.29 2.29 0 0 1-.423.238c-.562.243-1.184.252-1.753.026s-1.016-.659-1.258-1.221a.588.588 0 0 0-1.08.466c.367.85 1.043 1.507 1.904 1.848s1.803.328 2.653-.04h.001a2 2 0 0 0 .888.763 2.3 2.3 0 0 1-1.792.867 2.296 2.296 0 0 1-2.007-1.185.586.586 0 0 0-.932-.129 1.427 1.427 0 0 1-1.019.425c-.375 0-.73-.144-1-.407a.588.588 0 0 0-.957.204.866.866 0 1 1-1.577-.702.589.589 0 0 0-.437-.843 2.652 2.652 0 0 1-2.235-2.606c0-1.306.974-2.428 2.266-2.609a.587.587 0 0 0 .444-.846 1.23 1.23 0 0 1 1.923-1.457.59.59 0 0 0 .935-.203 2.29 2.29 0 0 1 3.695-.739.587.587 0 0 0 .963-.226 1.256 1.256 0 0 1 1.571-.772.588.588 0 0 0 .773-.555 2.296 2.296 0 0 1 2.291-2.279c.683 0 1.325.302 1.762.828a.586.586 0 0 0 1.009-.187 1.566 1.566 0 0 1 2.634-.559.587.587 0 0 0 .825.037.836.836 0 0 1 1.39.491.586.586 0 0 0 .855.427.842.842 0 0 1 1.208.944.587.587 0 0 0 .696.71 2.293 2.293 0 0 1 2.772 2.24c0 .701-.315 1.353-.865 1.791z"/><path d="M24.407 7.302c-.06.026-.119.053-.178.081a2.553 2.553 0 0 0-3.726-.875 2.534 2.534 0 0 0-2.712-.442 2.54 2.54 0 0 0-1.026.809 3.545 3.545 0 0 0-4.475 3.699.588.588 0 0 0 .586.542l.047-.002a.589.589 0 0 0 .54-.633 2.37 2.37 0 0 1 3.321-2.354c.294.13.638 0 .772-.293a1.367 1.367 0 0 1 2.402-.164.59.59 0 0 0 .955.053 1.375 1.375 0 0 1 2.42.629.588.588 0 0 0 .921.379c.194-.138.403-.256.62-.35a.588.588 0 0 0-.466-1.08z"/></symbol></defs></svg>