<svg xmlns="http://www.w3.org/2000/svg" aria-hidden="true" style="position:absolute;width:0;height:0;overflow:hidden"><defs><symbol id="icon-rabbit1" viewBox="0 0 32 32"><path fill="#ccd1d9" d="M21.484 27.995s-.959-1.25-1.043-2.09-.235-3.243-.235-3.243l-3.347 1.625s.222 2.514.764 3.514 1.021 2.861 1.021 2.861h4.689c0-1.5-1.849-2.667-1.849-2.667zM3.414 25.355l-.745-4.334a.667.667 0 0 0-1.26-.171L.064 23.71a.668.668 0 0 0-.061.338c.064.772.57 2.232 2.043 2.232.297 0 .615-.064.948-.189a.667.667 0 0 0 .421-.736z" style="fill:var(--color1, #ccd1d9)"/><path fill="#e6e9ed" d="M6.089 27.887c-.556 0-.864-.017-.877-.018a.668.668 0 0 1-.479-.246L1.424 23.54a.666.666 0 0 1-.148-.433c.01-.532.12-5.24.883-6.708l.071-.138c.358-.695.848-1.646 2.144-2.589 1.439-1.047 3.61-1.903 6.641-2.619 1.365-.322 2.641-.486 3.79-.486 2.962 0 4.496 1.078 5.17 1.76l4.422-2.772a.667.667 0 0 1 .355-.103c.45 0 2.855.633 4.075 1.967 1.122 1.227 2.976 3.873 3.055 3.984a.67.67 0 0 1 .12.383v.921a.674.674 0 0 1-.119.381l-.75 1.078a.666.666 0 0 1-.13.14c-.074.06-1.759 1.392-4.058 1.513-.291.401-.961 1.406-2.019 3.441-1.276 2.456-3.786 2.772-6.964 3.173-1.147.145-2.446.309-3.828.59-3.693.751-6.625.863-8.044.863z" style="fill:var(--color2, #e6e9ed)"/><path fill="#e6e9ed" d="M26.887 5.523c-.119-.831-.801-1.855-2.086-3.132a23.138 23.138 0 0 0-1.78-1.587.669.669 0 0 0-1.054.342c-.049.173-1.198 4.25-.972 6.125.225 1.856 1.741 4.896 1.806 5.023a.666.666 0 0 0 .9.295l2.606-1.334a.665.665 0 0 0 .356-.505c.019-.143.466-3.532.225-5.227z" style="fill:var(--color2, #e6e9ed)"/><path fill="#434a54" d="M28 13.328a.667.667 0 1 1-1.335-.001.667.667 0 0 1 1.335.001z" style="fill:var(--color3, #434a54)"/><path fill="#ccd1d9" d="m22.177 10.947-.938.589 1.563.758zM1.595 23.751l.636.785.637-2.404zM8.885 18.313c-1.164.103-2.461.913-2.461.913l7.046 7.927 1.126-.221s1.763-2.925.073-5.758c-1.396-2.342-3.65-3.049-5.784-2.861z" style="fill:var(--color1, #ccd1d9)"/><path fill="#e6e9ed" d="M19.997 29.074c-.034-.645-.55-1.141-1.532-1.472-.577-.194-1.143-.274-1.166-.278a.742.742 0 0 0-.094-.006l-3.847.008.059-.091c.805-1.248.888-1.811.899-2.125.078-2.078-.307-3.359-1.631-4.866-.705-.802-1.967-1.293-3.956-1.293-1.074 0-1.948.129-1.985.135a.653.653 0 0 0-.32.141l-3.431 2.77a.671.671 0 0 0-.126.135c-.903 1.283-1.073 2.86-.491 4.563a8.034 8.034 0 0 0 1.122 2.138c.14.18.362.275.589.254l1.884-.18-.029 1.755a.673.673 0 0 0 .191.479.67.67 0 0 0 .476.199h12.035c.177 0 .346-.07.471-.194.097-.097.94-.971.883-2.07z" style="fill:var(--color2, #e6e9ed)"/></symbol><symbol id="icon-rabbit2" viewBox="0 0 32 32"><path fill="#8e604c" d="M22.021 2.695 19 5.868a6.55 6.55 0 0 1-1.527 1.189l-4.872 2.744-2.255-3.209 4.232-3.655a6.54 6.54 0 0 1 1.636-1.034L20.223.136a1.596 1.596 0 0 1 1.798 2.559z" style="fill:var(--color4, #8e604c)"/><path fill="#7f5141" d="m21.708 3.023-2.709 2.845a6.55 6.55 0 0 1-1.527 1.189L12.6 9.801l-2.255-3.209 1.403-1.212h2.661l3.154-1.478a6.533 6.533 0 0 1 1.854-.553l2.29-.326z" style="fill:var(--color5, #7f5141)"/><path fill="#c18a6f" d="m20.321 2.534-1.486 1.455c-.22.215-.464.411-.725.579l-1.458.945c-.447.29-.95.293-1.164.007s-.068-.768.336-1.114l1.319-1.13c.236-.202.492-.381.761-.531l1.816-1.013c.315-.176.647-.162.793.033s.065.518-.192.77z" style="fill:var(--color6, #c18a6f)"/><path fill="#b57961" d="m19.501 3.337-.666.651c-.22.215-.464.411-.725.579l-1.458.945c-.447.29-.95.293-1.164.007-.124-.166-.126-.399-.027-.633l2.101-.985a6.533 6.533 0 0 1 1.854-.553l.083-.012z" style="fill:var(--color7, #b57961)"/><path fill="#966950" d="M32 29.217v1.391c0 .768-.623 1.391-1.391 1.391H18.783l-5.215-2.608a13.217 13.217 0 0 1-7.306-11.822V8.346l12.522 7.652c7.3 0 13.217 5.918 13.217 13.217z" style="fill:var(--color8, #966950)"/><path fill="#7f513d" d="M32 29.217v1.391c0 .768-.623 1.391-1.391 1.391H15.305a1.391 1.391 0 0 1-1.391-1.391 2.783 2.783 0 0 1 2.783-2.783h5.723a.698.698 0 0 0 .679-.546 5.565 5.565 0 0 1 5.424-4.323h1.904a13.164 13.164 0 0 1 1.575 6.261z" style="fill:var(--color9, #7f513d)"/><path fill="#966950" d="M32 29.913v.696c0 .768-.623 1.391-1.391 1.391h-.696A2.087 2.087 0 1 1 32 29.913z" style="fill:var(--color8, #966950)"/><path fill="#a57358" d="M30.609 28.515v.702c0 .768-.623 1.391-1.391 1.391h-.702a.695.695 0 0 1-.689-.689v-.006c0-1.153.934-2.087 2.087-2.087h.006a.695.695 0 0 1 .689.689zM29.03 20.87A13.19 13.19 0 0 0 18.783 16L16 14.3v8.417a3.034 3.034 0 0 0 3.052 3.034l.52-.003a3.062 3.062 0 0 0 2.542-1.404 7.669 7.669 0 0 1 1.603-1.776 7.67 7.67 0 0 1 4.805-1.697h.508z" style="fill:var(--color10, #a57358)"/><path fill="#7f513d" d="M13.913 13.024 6.261 8.348v9.223c0 1.749.346 3.445.986 5.008l-2.099 5.248H2.783A2.783 2.783 0 0 0 0 30.61c0 .768.623 1.391 1.391 1.391L6.261 32a2.087 2.087 0 0 0 1.916-1.311l2.918-7.294a.695.695 0 0 1 .646-.437h.086a2.087 2.087 0 0 0 2.087-2.087v-7.845z" style="fill:var(--color9, #7f513d)"/><path fill="#845441" d="M15.268 13.852a5.573 5.573 0 0 1-5.528 4.931H6.317a13.184 13.184 0 0 1-.056-1.212V8.348l9.007 5.504z" style="fill:var(--color11, #845441)"/><path fill="#774635" d="M13.913 13.024v3.868a5.548 5.548 0 0 1-4.173 1.89H6.318a77.49 77.49 0 0 1-.056-1.212V8.347l7.652 4.676z" style="fill:var(--color12, #774635)"/><path fill="#a57a63" d="m24.795 6.563-3.767 2.238a6.532 6.532 0 0 1-1.791.731l-4.792 1.167a.695.695 0 0 0-.531.676v1.842a4.174 4.174 0 0 1-4.174 4.174H4.175a4.174 4.174 0 0 1-4.174-4.174v-1.079c0-.199.085-.388.233-.52L4.68 7.666A5.563 5.563 0 0 1 8.377 6.26h6.033l3.154-1.478a6.533 6.533 0 0 1 1.854-.553l4.338-.617a1.595 1.595 0 0 1 1.039 2.95z" style="fill:var(--color13, #a57a63)"/><path fill="#d49877" d="m23.001 6.069-1.853.944a4.72 4.72 0 0 1-.864.337l-1.673.466c-.513.143-.994-.004-1.113-.341s.164-.753.653-.963l1.596-.685c.285-.122.583-.217.885-.279l2.036-.425c.353-.074.666.039.747.269s-.092.513-.414.677z" style="fill:var(--color14, #d49877)"/><path fill="#cea391" d="M2.087 9.971v2.551c0 .768-.623 1.391-1.391 1.391H.302a.278.278 0 0 1-.277-.245 4.183 4.183 0 0 1-.025-.45v-1.079c0-.199.085-.388.233-.52l1.853-1.648z" style="fill:var(--color15, #cea391)"/><path fill="#ddb9a4" d="M1.391 10.899v.695c0 .609-.391 1.126-.935 1.315A.347.347 0 0 1 0 12.578v-.44c0-.199.085-.388.233-.52l.926-.823a.14.14 0 0 1 .232.104z" style="fill:var(--color16, #ddb9a4)"/><path fill="#b58772" d="M8 11.826a1.74 1.74 0 1 1 .001-3.48A1.74 1.74 0 0 1 8 11.827zM11.332 12.527a.34.34 0 0 0-.211.05l-3.283 2a.349.349 0 0 0-.16.367A1.31 1.31 0 0 0 8.964 16h1.472a2.087 2.087 0 0 0 2.087-2.087v-.081c0-.683-.523-1.244-1.19-1.305z" style="fill:var(--color17, #b58772)"/><path fill="#8e604c" d="M2.435 15.478a.174.174 0 1 1-.348 0 .174.174 0 0 1 .348 0zM1.565 14.609a.174.174 0 1 0 0 .348.174.174 0 0 0 0-.348zM2.261 13.913a.174.174 0 1 0 0 .348.174.174 0 0 0 0-.348zM2.957 14.609a.174.174 0 1 0 0 .348.174.174 0 0 0 0-.348z" style="fill:var(--color4, #8e604c)"/><path fill="#492e22" d="M8.696 10.087a.696.696 0 1 1-1.392 0 .696.696 0 0 1 1.392 0z" style="fill:var(--color18, #492e22)"/><path fill="#e9d2c2" d="M8.696 9.739a.348.348 0 1 1-.696 0 .348.348 0 0 1 .696 0z" style="fill:var(--color19, #e9d2c2)"/></symbol><symbol id="icon-rabbit3" viewBox="0 0 32 32"><path fill="#4f3e3e" d="M30.484 27.193a2.346 2.346 0 1 1-4.692 0 2.346 2.346 0 0 1 4.692 0z" style="fill:var(--color20, #4f3e3e)"/><path fill="#4f3e3e" d="M28.57 24.211c-.04-3.753-5.05-12.352-13.315-12.352l-8.038 4.297C3.774 21.788 8.36 26.247 8.36 26.247c-6.968 4.497.124 8.995 7.181.152l13.029-2.188zM22.421 1.195c.587 1.507-1.834 3.857-5.408 5.248s-6.946 1.297-7.533-.21c-.587-1.507 1.834-3.857 5.408-5.248s6.946-1.297 7.533.21z" style="fill:var(--color20, #4f3e3e)"/><path d="m15.255 11.859-8.038 4.297a9.009 9.009 0 0 0-.959 2.119c.723.134 1.461.206 2.19.206 2.157 0 4.137-.589 5.728-1.703 1.583-1.108 2.736-2.715 3.378-4.689a11.626 11.626 0 0 0-2.3-.229z" opacity=".1" style="fill:var(--color21, #000)"/><path fill="#695352" d="M25.723 3.237c-.602-1.546-4.062-1.643-7.729-.216-1.342.522-2.525 1.177-3.457 1.872C9.682.979 1.516 8.231 1.516 12.049c.161 4.346 12.247 7.297 14.145-1.556v-.866c1.311-.042 2.892-.374 4.513-1.005 3.666-1.427 6.151-3.838 5.549-5.385z" style="fill:var(--color22, #695352)"/><path fill="#4f3e3e" d="M8.695 9.646a.966.966 0 1 1-1.932 0 .966.966 0 0 1 1.932 0z" style="fill:var(--color20, #4f3e3e)"/><path fill="#695352" d="M28.57 24.211c0-3.699-2.998-6.697-6.697-6.697a6.697 6.697 0 0 0-5.368 10.702c-3.655 2.165-.302 5.549 5.77 2.679a6.697 6.697 0 0 0 6.295-6.685z" style="fill:var(--color22, #695352)"/></symbol><symbol id="icon-rabbit4" viewBox="0 0 32 32"><path fill="#ecf0f2" d="M23.46 20.293s1.302-1.302 2.675-.915c1.372.387 2.253 1.09 2.357 2.535s-.24 2.525-1.337 3.238c-1.407.915-3.098.317-3.098.317l-.598-5.175z" style="fill:var(--color23, #ecf0f2)"/><path fill="#a8a8a8" d="M15.047 10.65s1.02-2.217.95-5.21c-.07-2.993-.74-4.575-2.24-4.518-1.643.065-2.152 2.712-2.123 4.905.035 2.675 1.01 4.692 1.01 4.692l2.402.13zM11.67 19.435l-2.51.21s.082.258.057.492l-.082.82 3.168 2.488 6.03-3.355-1.62-1.102-5.043.448z" style="fill:var(--color24, #a8a8a8)"/><path fill="#8e9395" d="M4.865 16.238a.25.25 0 0 1-.037-.497h.001c.027-.005.678-.095 1.388-.12.785-.025.995-.033 1.675.098a.25.25 0 1 1-.095.491c-.623-.12-.803-.115-1.563-.09-.683.023-1.327.115-1.335.115a.14.14 0 0 1-.035.005zM4.607 17.973a.25.25 0 0 1-.057-.492c.035-.01.88-.215 1.4-.308.518-.095 1.452-.207 1.492-.212.01-.002.022-.002.034-.002.126 0 .231.096.244.219v.001l.002.032a.247.247 0 0 1-.218.245h-.001c-.01 0-.96.117-1.463.21s-1.362.3-1.37.302a.512.512 0 0 1-.063.005z" style="fill:var(--color25, #8e9395)"/><path fill="#a8a8a8" d="m20.233 21.688-8.845 5.563s-1.83 2.065-1.42 2.5c.217.23 1.072.435 1.817.27 1.067-.235 1.995-2.5 1.995-2.5s-.47 3.215.258 3.355c.727.14 1.783-.035 2.253-.902s.633-1.925 1.055-2.37.797-.775.797-.775.235.282.375.47.4.445.4.445-1.098.68-1.477 1.22c-.387.552-.308 1.205.258 1.433.82.328 4.365-1.102 4.365-1.102l-.705-7.86-1.125.255z" style="fill:var(--color24, #a8a8a8)"/><path fill="#dfdfdf" d="M18.872 16.385s.117-.845-.047-1.62c-.165-.775-.633-1.665-.633-1.665s1.738-.658 2.98-1.783c1.38-1.25 3.425-3.59 3.613-5.515s-.962-3.66-3.99-1.83-5.23 6.36-5.23 6.36-2.393-1.01-4.34.047-2.98 3.777-3.075 3.965c-.095.188-1.3.735-1.455 2.393-.152 1.643.765 2.57 2.135 2.933.955.253 1.83.047 1.83.047s.728.82 2.605.797c1.877-.023 3.425-1.01 3.425-1.01s-.352 1.337-2.043 2.065c-1.268.545-2.815.47-3.942-.023S9.18 20.491 9.18 20.491s-.4 1.83 0 2.933 1.172 2.628 1.125 3.777-.785 1.995-.422 2.462c.203.262 1.037.483 1.69-.21 1.102-1.172 1.06-2.5 1.455-2.558.82-.117.422 2.275.4 2.768s-.092 1.115.445 1.198c1.15.175 1.338-.258 1.83-1.407s.435-1.747.937-2.44c.41-.563 1.102-.938 1.102-.938s-.13-1.56.387-2.383c.515-.82 1.538-1.468 2.288-1.185s-.902.48-1.442 1.655c-.395.86-.317 1.747.247 2.357.563.61 1.242 1.125 1.242 1.125s-2.69.97-2.933 1.96c-.175.715.117 1.045 1.76.88s3.73-.727 4.552-1.76c.82-1.032 1.87-4.418.997-6.887-.705-1.995-1.207-2.875-3.015-4.165-1.805-1.29-2.955-1.29-2.955-1.29z" style="fill:var(--color26, #dfdfdf)"/><path fill="#ffb0b1" d="M17.465 10.99c-.44-.455.328-2.065 2.065-3.918s2.933-2.44 3.52-2.018c.587.423-.258 2.23-1.925 3.99-1.38 1.455-2.933 2.695-3.66 1.945z" style="fill:var(--color27, #ffb0b1)"/><path fill="#fff" d="M11.915 10.895c.65.14.088 1.09-.457 2.005s-.95 1.39-.828 1.83c.123.44 1.072 1.285 1.02 2.287s-.898 2.148-2.48 2.023-2.217-1.337-1.952-2.657c.21-1.045 1.285-1.53 1.565-2.043.283-.51.748-1.367 1.232-2.078.688-.998 1.248-1.508 1.9-1.367z" style="fill:var(--color28, #fff)"/><path fill="#2f3030" d="M14.31 13.522c.478.047.814.614.75 1.267s-.504 1.144-.982 1.097c-.478-.047-.814-.614-.75-1.267s.504-1.144.982-1.097zM8.655 15.81s.785-.645 1.09-.328c.305.318-.928 1.08-.928 1.08s-.117.575.235.633.4-.692.785-.492c.387.2.035 1.198-.645 1.207-.405.008-.645-.293-.645-.293s-.107.223-.47.188c-.598-.058-.88-1.27-.435-1.255.353.012.14.575.47.575.375 0 .223-.668.223-.668s-.82-.857-.457-1.162c.367-.305.777.515.777.515z" style="fill:var(--color29, #2f3030)"/><path fill="#8e9395" d="M14.133 17.315a.276.276 0 0 1-.088-.015c-.01-.003-.905-.335-1.48-.46l-1.36-.293c-.135-.03-.22-.163-.193-.297s.162-.22.297-.192l1.36.293c.61.133 1.51.465 1.547.48a.252.252 0 0 1-.083.486h-.002zM13.85 18.983a.254.254 0 0 1-.133-.038 35.376 35.376 0 0 0-1.49-.872 12.97 12.97 0 0 0-1.278-.621l-.092-.034a.25.25 0 1 1 .189-.462l-.002-.001c.027.01.69.28 1.422.683.725.398 1.505.883 1.512.887a.252.252 0 0 1 .08.345.248.248 0 0 1-.21.113z" style="fill:var(--color25, #8e9395)"/></symbol><symbol id="icon-rabbit5" viewBox="0 0 32 32"><path fill="#4f3e3e" d="M29.988 26.81a2.265 2.265 0 1 1-4.53 0 2.265 2.265 0 0 1 4.53 0z" style="fill:var(--color20, #4f3e3e)"/><path fill="#4f3e3e" d="M28.139 23.93c-.038-3.624-4.877-11.929-12.859-11.929l-7.762 4.15c-3.325 5.439 1.104 9.746 1.104 9.746-6.729 4.343.12 8.687 6.935.146l12.582-2.113zM22.201 1.702c.567 1.456-1.772 3.725-5.223 5.069s-6.708 1.253-7.275-.203c-.567-1.456 1.772-3.725 5.223-5.069s6.708-1.253 7.275.203z" style="fill:var(--color20, #4f3e3e)"/><path d="m15.281 12.001-7.762 4.15a8.679 8.679 0 0 0-.926 2.046c.699.129 1.411.198 2.115.198 2.083 0 3.996-.569 5.532-1.644 1.529-1.07 2.642-2.622 3.262-4.529a11.227 11.227 0 0 0-2.221-.221z" opacity=".1" style="fill:var(--color21, #000)"/><path fill="#695352" d="M25.39 3.675c-.581-1.493-3.923-1.587-7.464-.208-1.296.505-2.439 1.136-3.339 1.808-4.689-3.78-12.575 3.224-12.575 6.911.155 4.197 11.827 7.047 13.66-1.503v-.837c1.266-.04 2.793-.362 4.358-.971 3.541-1.378 5.94-3.707 5.359-5.2zM28.139 23.93a6.468 6.468 0 1 0-11.652 3.868c-3.53 2.091-.292 5.359 5.572 2.588a6.468 6.468 0 0 0 6.08-6.456z" style="fill:var(--color22, #695352)"/><path d="M8.945 9.858a.933.933 0 1 1-1.867 0 .933.933 0 0 1 1.867 0zM17.826 19.266a.544.544 0 0 0 .322-.106 5.934 5.934 0 0 1 1.386-.764.542.542 0 0 0-.391-1.011 7 7 0 0 0-1.64.904.542.542 0 0 0 .323.978z" style="fill:var(--color21, #000)"/><path d="M6.672 16.551c-1.382 2.719-.977 5.121-.353 6.705a9.685 9.685 0 0 0 1.488 2.534c-1.765 1.271-2.656 2.669-2.462 3.893.199 1.25 1.488 1.794 2.626 1.794.914 0 1.961-.28 3.04-.822 1.48-.744 2.976-1.965 4.365-3.555.074.141.153.279.238.413a.692.692 0 0 0-.083.257c-.431.352-.818.823-.982 1.381-.246.843.141 1.747.891 2.197.78.468 1.675.651 2.58.651 1.032 0 2.167-.241 3.395-.721.181-.071.293-.236.501-.254 1.558-.139 3.107-.804 4.318-1.841.444.278.958.428 1.488.428a2.81 2.81 0 0 0 2.807-2.807 2.798 2.798 0 0 0-1.901-2.657c.021-2.593-1.18-5.247-3.672-8.11-1.884-2.164-4.237-3.598-7.015-4.279a13.747 13.747 0 0 0-1.903-.31c.026.003.164-.633.173-.702.004-.031.003-.397.005-.397 1.247-.106 2.65-.446 4.013-.977 1.778-.692 3.343-1.642 4.406-2.673 1.179-1.144 1.627-2.29 1.261-3.229-.363-.933-1.457-1.473-3.082-1.525a1.768 1.768 0 0 0-.109-.448c-.377-.967-1.538-1.5-3.271-1.5-1.398 0-3.069.351-4.706.988-1.812.705-3.416 1.702-4.443 2.753a8.253 8.253 0 0 0-.949.222c-1.764.523-3.583 1.653-5.121 3.181a.543.543 0 0 0 .765.769c1.393-1.384 3.093-2.445 4.665-2.911a6.38 6.38 0 0 1 1.803-.278c.927 0 1.762.248 2.488.737a.121.121 0 0 1 .014.01c.145.099.285.246.457.304a.549.549 0 0 0 .501-.071l.003-.002c.351-.258.714-.498 1.09-.718.649-.38 1.366-.725 2.121-1.019l.016-.006c1.461-.567 3.037-.974 4.615-.93 1.144.032 1.941.344 2.132.836s-.185 1.261-1.006 2.057c-.961.933-2.398 1.8-4.045 2.441-1.446.563-2.93.895-4.179.934a.542.542 0 0 0-.525.542v.778c-.413 1.868-1.342 3.252-2.763 4.113-1.21.733-2.782 1.058-4.428.914-2.853-.249-5.315-1.84-5.385-3.476.004-.722.385-1.666 1.075-2.659a.541.541 0 1 0-.891-.618c-.83 1.194-1.269 2.331-1.269 3.288v.02c.081 2.175 2.542 3.796 5.201 4.352zM21.704 1.982l-.208.02-.017.002a15.22 15.22 0 0 0-6.538 2.36l-.008.005a15.44 15.44 0 0 0-.34.227 5.424 5.424 0 0 0-2.568-.93c.853-.631 1.925-1.212 3.097-1.668 1.514-.59 3.046-.914 4.312-.914 1.218 0 2.063.302 2.26.808.011.028.02.058.027.088l-.018.002zm6.682 23.959c.064-.214.118-.432.161-.65a1.725 1.725 0 0 1-1.481 3.107 6.988 6.988 0 0 0 1.319-2.457zM7.809 16.722l.037.003c.279.024.562.037.847.037 2.703 0 5.595-1.139 6.963-4.253.204-.394 3.051.546 3.302.638 1.449.53 2.78 1.345 4.069 2.49a8.21 8.21 0 0 1 1.1 1.098l.008.009c2.351 2.699 3.466 5.156 3.409 7.509v.013c0 1.456-.689 2.829-1.723 3.83a6.713 6.713 0 0 1-3.98 1.845c-.344.01-.634.189-.873.347-1.881.726-3.469.821-4.722.282-.441-.19-.8-.616-.654-1.115.113-.386.462-.747.83-.997 1.026.841 2.59 1.471 2.663 1.5a.542.542 0 1 0 .401-1.007c-.492-.196-1.91-.851-2.599-1.53a.211.211 0 0 0-.019-.023c-.453-.51-.707-1.082-.898-1.715-.433-1.433-.294-3.097.453-4.513a.543.543 0 0 0-.958-.507 7.258 7.258 0 0 0-.807 3.852c.036.502.124.986.26 1.447-1.903 2.29-4.674 4.441-6.874 4.44-.261 0-.514-.03-.757-.094-.354-.093-.791-.307-.869-.798-.108-.681.492-1.871 2.5-3.167a.54.54 0 0 0 .085-.843c-.011-.01-1.052-1.043-1.688-2.681-.796-2.052-.628-4.102.496-6.1z" style="fill:var(--color21, #000)"/></symbol></defs></svg>